# xmcd
#
# Track frame offsets: 
#        150
#        18591
#        35695
#        52986
#        70990
#        92793
#        105941
#        124788
#        156534
#        176616
#        198669
#        217404
#        235142
#        260945
#        278692
#        293517
#        310405
#
# Disc length: 4380 seconds
#
# Revision: 0
# Processed by: cddbd v1.5.2PL0 Copyright (c) Steve Scherf et al.
# Submitted via: ExactAudioCopy v0.99pb5
#
DISCID=06111a11
DTITLE=Various Artist - Billboard 1985
DYEAR=2000
DGENRE=Other
TTITLE0=Dire Straits - Money for Nothing
TTITLE1=a-ha - Take on Me
TTITLE2=John Fogerty - Centerfield
TTITLE3=Dragon - Rain
TTITLE4=REO Speedwagon - Can't Fight This Feeling
TTITLE5=John Cougar Mellencamp - R.O.C.K. in the U.S.A.
TTITLE6=Opus - Live Is Life
TTITLE7=USA for Africa - We Are the World
TTITLE8=Paul Young - Everytime You Go Away
TTITLE9=Laid Back - Elevator Boy
TTITLE10=Tears for Fears - Everybody Wants to Rule the World
TTITLE11=Howard Jones - Things Can Only Get Better
TTITLE12=Elton John - Nikita
TTITLE13=Huey Lewis and the News - The Power of Love
TTITLE14=Dead or Alive - You Spin Me Round (Like a Record)
TTITLE15=Mike and The Mechanics - All I Need Is a Miracle
TTITLE16=Lionel Richie - Say You, Say Me
EXTD=
EXTT0=
EXTT1=
EXTT2=
EXTT3=
EXTT4=
EXTT5=
EXTT6=
EXTT7=
EXTT8=
EXTT9=
EXTT10=
EXTT11=
EXTT12=
EXTT13=
EXTT14=
EXTT15=
EXTT16=
PLAYORDER=
